# xmcd CD database file
#
# Track frame offsets:
#	150
#	14032
#	25295
#	39972
#	54782
#	67360
#	81207
#	93972
#	105825
#	116220
#	133762
#	145025
#	156765
#
# Disc length: 2226 seconds
#
# Revision: 0
# Processed by: cddbd v1.4PL0 Copyright (c) Steve Scherf et al.
# Submitted via: CDex 1.40Beta9
#
DISCID=a908b00d
DTITLE=Burrito Brothers - Double Barrel
DYEAR=1900
DGENRE=Country
TTITLE0=She's single again
TTITLE1=New Shade of Blue
TTITLE2=Price of Love
TTITLE3=Ain't Love Just Like the Rain
TTITLE4=One More Time
TTITLE5=Sailor
TTITLE6=No Easy Way Out
TTITLE7=Tonight
TTITLE8=Hearts in My Eyes
TTITLE9=Ain't Worth The Powder
TTITLE10=Late in The Night
TTITLE11=I'm Confessing
TTITLE12=Let Your Heart Do the Talking
EXTD=ID3G: 2
EXTT0=
EXTT1=
EXTT2=
EXTT3=
EXTT4=
EXTT5=
EXTT6=
EXTT7=
EXTT8=
EXTT9=
EXTT10=
EXTT11=
EXTT12=
PLAYORDER=
